<svg xmlns="http://www.w3.org/2000/svg" viewBox="0 0 1200 630" width="1200" height="630">
  <defs>
    <linearGradient id="bg" x1="0" y1="0" x2="1" y2="1">
      <stop offset="0%" stop-color="#f5ecdf"/>
      <stop offset="100%" stop-color="#ede0cb"/>
    </linearGradient>
    <linearGradient id="woodG" x1="0" y1="0" x2="1" y2="0.6">
      <stop offset="0%" stop-color="#a8784e"/>
      <stop offset="60%" stop-color="#8a5d39"/>
      <stop offset="100%" stop-color="#6a4626"/>
    </linearGradient>
    <pattern id="grain" x="0" y="0" width="1200" height="60" patternUnits="userSpaceOnUse">
      <path d="M0,30 Q200,18 400,30 T800,30 T1200,30" stroke="#3a2614" stroke-width="0.9" fill="none" opacity="0.32"/>
      <path d="M0,44 Q240,32 500,44 T1200,44" stroke="#2a1f17" stroke-width="0.7" fill="none" opacity="0.25"/>
      <path d="M0,16 Q160,8 360,16 T1200,16" stroke="#3a2614" stroke-width="0.6" fill="none" opacity="0.2"/>
    </pattern>
    <filter id="noise">
      <feTurbulence type="fractalNoise" baseFrequency="0.9" numOctaves="2" stitchTiles="stitch"/>
      <feColorMatrix values="0 0 0 0 0.16 0 0 0 0 0.12 0 0 0 0 0.08 0 0 0 0.16 0"/>
    </filter>
  </defs>

  <!-- Fundo creme -->
  <rect width="1200" height="630" fill="url(#bg)"/>

  <!-- Grão de papel suave no fundo todo -->
  <rect width="1200" height="630" filter="url(#noise)" opacity="0.45"/>

  <!-- Faixa de madeira diagonal à direita (compõe sem dominar) -->
  <g transform="translate(740 -60) rotate(8 230 345)">
    <rect x="0" y="0" width="540" height="750" fill="url(#woodG)"/>
    <rect x="0" y="0" width="540" height="750" fill="url(#grain)" opacity="0.6"/>
    <!-- nó da madeira -->
    <ellipse cx="280" cy="280" rx="22" ry="32" fill="#3a2614" opacity="0.55"/>
    <ellipse cx="280" cy="280" rx="9" ry="14" fill="#1a0e08" opacity="0.7"/>
  </g>

  <!-- Bloco escuro com a marca -->
  <g transform="translate(80 110)">
    <rect width="120" height="100" rx="10" fill="#2a1f17"/>
    <text x="60" y="68" font-family="Georgia, 'Times New Roman', serif" font-size="48" font-weight="600" font-style="italic" fill="#f5ecdf" text-anchor="middle" letter-spacing="-2">C&amp;G</text>
  </g>

  <!-- Eyebrow -->
  <text x="80" y="290" font-family="Manrope, Arial, sans-serif" font-size="18" font-weight="600" fill="#a8552a" letter-spacing="4">CAMAÇARI · BAHIA · DESDE 2015</text>

  <!-- Frase principal -->
  <text x="80" y="368" font-family="Georgia, 'Times New Roman', serif" font-size="64" font-weight="400" fill="#2a1f17">Madeira em pequenas</text>
  <text x="80" y="438" font-family="Georgia, 'Times New Roman', serif" font-size="64" font-weight="500" font-style="italic" fill="#a8552a">peças com alma.</text>

  <!-- Linha separadora -->
  <rect x="80" y="480" width="60" height="3" fill="#2a1f17"/>

  <!-- Subtítulo -->
  <text x="80" y="518" font-family="Manrope, Arial, sans-serif" font-size="22" font-weight="500" fill="#4a3624">C&amp;G Madeira Decor — Pequenos móveis e decoração</text>

  <!-- Domínio -->
  <text x="80" y="562" font-family="Manrope, Arial, sans-serif" font-size="16" font-weight="600" fill="#7a6249" letter-spacing="2">CGMADEIRADECOR.COM.BR</text>
</svg>
